<svg width="21" height="21" viewBox="0 0 21 21" fill="none" xmlns="http://www.w3.org/2000/svg">
<g clip-path="url(#clip0_8_112)">
<path d="M3.20056 5.67843C3.72278 5.31343 4.51 5.38343 4.97889 5.77066L4.44111 4.98899C4.00833 4.37177 4.16333 3.70399 4.78111 3.27066C5.39889 2.83899 7.14945 3.99955 7.14945 3.99955C6.71278 3.37621 6.79445 2.58621 7.41778 2.14899C7.71746 1.93959 8.08802 1.85772 8.44803 1.92137C8.80804 1.98502 9.12806 2.18898 9.33778 2.48843L15.1267 10.6662L14.3889 17.819L8.23167 15.5734L2.86111 7.61066C2.75639 7.46155 2.68209 7.29325 2.64247 7.1154C2.60285 6.93755 2.59868 6.75363 2.63021 6.57416C2.66174 6.3947 2.72834 6.22321 2.8262 6.06952C2.92407 5.91582 3.05128 5.78292 3.20056 5.67843Z" fill="#EF9645"/>
<path d="M1.99722 10.2279C1.99722 10.2279 1.36833 9.31121 2.28556 8.68288C3.20167 8.05454 3.83 8.97065 3.83 8.97065L6.74722 13.2251C6.84778 13.0573 6.95778 12.8918 7.08056 12.7284L3.03167 6.82454C3.03167 6.82454 2.40333 5.90843 3.32 5.2801C4.23611 4.65177 4.86444 5.56788 4.86444 5.56788L8.67278 11.1218C8.81445 11.0062 8.95944 10.8901 9.10889 10.7762L4.69389 4.33677C4.69389 4.33677 4.06556 3.42065 4.98222 2.79232C5.89833 2.16399 6.52667 3.0801 6.52667 3.0801L10.9417 9.51843C11.1039 9.41899 11.2644 9.33288 11.4256 9.24177L7.29889 3.22399C7.29889 3.22399 6.67056 2.30788 7.58667 1.67954C8.50278 1.05121 9.13111 1.96732 9.13111 1.96732L13.4944 8.33065L14.1578 9.29843C11.4089 11.184 11.1472 14.7312 12.7178 17.0218C13.0317 17.4801 13.49 17.1662 13.49 17.1662C11.605 14.4168 12.1806 11.3273 14.93 9.44232L14.1194 5.38565C14.1194 5.38565 13.8167 4.31677 14.885 4.01343C15.9539 3.71065 16.2572 4.77954 16.2572 4.77954L17.1933 7.55954C17.5644 8.66177 17.9594 9.7601 18.4822 10.799C19.9583 13.7323 19.0767 17.3779 16.2933 19.2873C13.2572 21.369 9.10667 20.5951 7.02445 17.5595L1.99722 10.2279Z" fill="#FFDC5D"/>
<path d="M7.16666 18.3979C4.94444 18.3979 2.69889 16.1524 2.69889 13.9301C2.69889 13.6229 2.47389 13.3746 2.16667 13.3746C1.85944 13.3746 1.58778 13.6229 1.58778 13.9301C1.58778 17.2635 3.83333 19.509 7.16666 19.509C7.47389 19.509 7.72222 19.2373 7.72222 18.9301C7.72222 18.6229 7.47389 18.3979 7.16666 18.3979Z" fill="#5DADEC"/>
<path d="M4.38889 19.4857C2.72222 19.4857 1.61111 18.3746 1.61111 16.7079C1.61111 16.5605 1.55258 16.4192 1.44839 16.315C1.34421 16.2109 1.2029 16.1523 1.05556 16.1523C0.908213 16.1523 0.766905 16.2109 0.662718 16.315C0.558532 16.4192 0.5 16.5605 0.5 16.7079C0.5 18.9301 2.16667 20.5968 4.38889 20.5968C4.53623 20.5968 4.67754 20.5382 4.78173 20.4341C4.88591 20.3299 4.94444 20.1886 4.94444 20.0412C4.94444 19.8939 4.88591 19.7526 4.78173 19.6484C4.67754 19.5442 4.53623 19.4857 4.38889 19.4857ZM13.8333 1.70789C13.686 1.70789 13.5447 1.76642 13.4405 1.8706C13.3363 1.97479 13.2778 2.1161 13.2778 2.26344C13.2778 2.41078 13.3363 2.55209 13.4405 2.65628C13.5447 2.76047 13.686 2.819 13.8333 2.819C16.0556 2.819 18.2778 4.81289 18.2778 7.26344C18.2778 7.41078 18.3363 7.55209 18.4405 7.65628C18.5447 7.76047 18.686 7.819 18.8333 7.819C18.9807 7.819 19.122 7.76047 19.2262 7.65628C19.3304 7.55209 19.3889 7.41078 19.3889 7.26344C19.3889 4.20011 17.1667 1.70789 13.8333 1.70789Z" fill="#5DADEC"/>
<path d="M16.6111 0.620117C16.3044 0.620117 16.0556 0.845673 16.0556 1.15234C16.0556 1.45901 16.3044 1.73123 16.6111 1.73123C18.2778 1.73123 19.3656 2.96734 19.3656 4.48567C19.3656 4.79234 19.6372 5.04123 19.9444 5.04123C20.2517 5.04123 20.4767 4.79234 20.4767 4.48567C20.4767 2.35401 18.8333 0.620117 16.6111 0.620117Z" fill="#5DADEC"/>
</g>
<defs>
<clipPath id="clip0_8_112">
<rect width="20" height="20" fill="white" transform="translate(0.5 0.596771)"/>
</clipPath>
</defs>
</svg>
