<svg width="14" height="15" viewBox="0 0 14 15" fill="none" xmlns="http://www.w3.org/2000/svg">
<path fill-rule="evenodd" clip-rule="evenodd" d="M9.52904 0.666748C9.80504 0.666748 10.029 0.890748 10.029 1.16675L10.0293 1.73196C11.0028 1.79869 11.8112 2.13211 12.3834 2.70548C13.008 3.33281 13.3367 4.23481 13.3334 5.31681V11.3988C13.3334 13.6201 11.9227 15.0001 9.65271 15.0001H4.01404C1.74404 15.0001 0.333374 13.6008 0.333374 11.3481V5.31548C0.333374 3.22028 1.59141 1.87537 3.64316 1.73218L3.64357 1.16675C3.64357 0.890748 3.86757 0.666748 4.14357 0.666748C4.41957 0.666748 4.64357 0.890748 4.64357 1.16675L4.64337 1.71941H9.02871L9.02904 1.16675C9.02904 0.890748 9.25304 0.666748 9.52904 0.666748ZM12.3334 6.60275H1.33337V11.3481C1.33337 13.0588 2.28537 14.0001 4.01404 14.0001H9.65271C11.3814 14.0001 12.3334 13.0761 12.3334 11.3988L12.3334 6.60275ZM9.80084 10.7976C10.0768 10.7976 10.3008 11.0216 10.3008 11.2976C10.3008 11.5736 10.0768 11.7976 9.80084 11.7976C9.52484 11.7976 9.29817 11.5736 9.29817 11.2976C9.29817 11.0216 9.51884 10.7976 9.79484 10.7976H9.80084ZM6.84251 10.7976C7.11851 10.7976 7.34251 11.0216 7.34251 11.2976C7.34251 11.5736 7.11851 11.7976 6.84251 11.7976C6.56651 11.7976 6.33984 11.5736 6.33984 11.2976C6.33984 11.0216 6.56051 10.7976 6.83651 10.7976H6.84251ZM3.87797 10.7976C4.15397 10.7976 4.37797 11.0216 4.37797 11.2976C4.37797 11.5736 4.15397 11.7976 3.87797 11.7976C3.60197 11.7976 3.37464 11.5736 3.37464 11.2976C3.37464 11.0216 3.59597 10.7976 3.87197 10.7976H3.87797ZM9.80084 8.20648C10.0768 8.20648 10.3008 8.43048 10.3008 8.70648C10.3008 8.98248 10.0768 9.20648 9.80084 9.20648C9.52484 9.20648 9.29817 8.98248 9.29817 8.70648C9.29817 8.43048 9.51884 8.20648 9.79484 8.20648H9.80084ZM6.84251 8.20648C7.11851 8.20648 7.34251 8.43048 7.34251 8.70648C7.34251 8.98248 7.11851 9.20648 6.84251 9.20648C6.56651 9.20648 6.33984 8.98248 6.33984 8.70648C6.33984 8.43048 6.56051 8.20648 6.83651 8.20648H6.84251ZM3.87797 8.20648C4.15397 8.20648 4.37797 8.43048 4.37797 8.70648C4.37797 8.98248 4.15397 9.20648 3.87797 9.20648C3.60197 9.20648 3.37464 8.98248 3.37464 8.70648C3.37464 8.43048 3.59597 8.20648 3.87197 8.20648H3.87797ZM9.02871 2.71941H4.64337L4.64357 3.36075C4.64357 3.63675 4.41957 3.86075 4.14357 3.86075C3.86757 3.86075 3.64357 3.63675 3.64357 3.36075L3.64322 2.73455C2.14973 2.86001 1.33337 3.76532 1.33337 5.31548V5.60275H12.3334L12.3334 5.31548C12.336 4.49215 12.1147 3.85215 11.6754 3.41215C11.2897 3.02535 10.7259 2.79435 10.0296 2.73487L10.029 3.36075C10.029 3.63675 9.80504 3.86075 9.52904 3.86075C9.25304 3.86075 9.02904 3.63675 9.02904 3.36075L9.02871 2.71941Z" fill="#989898"/>
</svg>
