<svg width="20" height="21" viewBox="0 0 20 21"  xmlns="http://www.w3.org/2000/svg">
<path d="M6.95607 3.79822C7.4462 3.70648 7.93762 3.95119 8.15146 4.39351C8.20469 4.47377 8.2473 4.56035 8.27824 4.65117C8.41408 6.74801 8.55898 8.80931 8.69482 10.8706C8.69173 11.0849 8.7254 11.2981 8.79444 11.5014C8.95695 11.9015 9.36136 12.1552 9.79965 12.1323L16.4558 11.7058L16.5011 11.7236L16.6226 11.7323C16.8632 11.7631 17.0875 11.8729 17.2579 12.0458C17.4566 12.2474 17.5655 12.5182 17.5608 12.7986C17.2984 16.6207 14.4962 19.8142 10.6828 20.6369C6.86938 21.4597 2.96017 19.7141 1.08778 16.3526C0.537217 15.3844 0.189303 14.3181 0.064454 13.2162C0.0160313 12.8897 -0.0051696 12.5599 0.00106199 12.23C0.0136824 8.16578 2.90728 4.65778 6.95607 3.79822ZM10.9135 0.839539C15.4843 0.976369 19.3044 4.29452 19.9967 8.72934C20.0011 8.75582 20.0011 8.78283 19.9967 8.80931L19.9955 8.9345C19.9804 9.10001 19.9125 9.25784 19.7996 9.38456C19.6586 9.54297 19.459 9.6397 19.2451 9.65337L11.5656 10.1598L11.4391 10.1623C11.2294 10.1521 11.0284 10.0706 10.8718 9.92964C10.6839 9.76051 10.5774 9.5215 10.5785 9.27132L10.0623 1.72803V1.60364C10.0717 1.39149 10.1667 1.19172 10.3264 1.04838C10.4861 0.905037 10.6973 0.829901 10.9135 0.839539Z" />
</svg>
