<svg width="20" height="20" viewBox="0 0 20 20" fill="none" xmlns="http://www.w3.org/2000/svg">
<path d="M11.6667 6.66668V5.00001C11.6667 4.55798 11.4911 4.13406 11.1785 3.8215C10.8659 3.50894 10.442 3.33334 10 3.33334H4.16667C3.72464 3.33334 3.30072 3.50894 2.98816 3.8215C2.67559 4.13406 2.5 4.55798 2.5 5.00001V15C2.5 15.442 2.67559 15.866 2.98816 16.1785C3.30072 16.4911 3.72464 16.6667 4.16667 16.6667H10C10.442 16.6667 10.8659 16.4911 11.1785 16.1785C11.4911 15.866 11.6667 15.442 11.6667 15V13.3333" stroke="#C4C4C4" stroke-width="1.66667" stroke-linecap="round" stroke-linejoin="round"/>
<path d="M7.5 10H17.5M17.5 10L15 7.5M17.5 10L15 12.5" stroke="#C4C4C4" stroke-width="1.66667" stroke-linecap="round" stroke-linejoin="round"/>
</svg>
