<svg width="24" height="25" viewBox="0 0 24 25" xmlns="http://www.w3.org/2000/svg">
<rect y="0.838715" width="24" height="24" rx="12" />
<path d="M7.57422 9.27231C8.35156 9.27231 8.99219 9.36606 9.49609 9.55356C10.0039 9.74106 10.3809 10.0243 10.627 10.4032C10.873 10.7821 10.9961 11.2606 10.9961 11.8387C10.9961 12.2293 10.9219 12.5711 10.7734 12.8641C10.625 13.1571 10.4297 13.4051 10.1875 13.6082C9.94531 13.8114 9.68359 13.9774 9.40234 14.1063L11.9219 17.8387H9.90625L7.86133 14.5516H6.89453V17.8387H5.07812V9.27231H7.57422ZM7.44531 10.7606H6.89453V13.075H7.48047C8.08203 13.075 8.51172 12.9754 8.76953 12.7762C9.03125 12.5731 9.16211 12.2762 9.16211 11.8856C9.16211 11.4793 9.02148 11.1903 8.74023 11.0184C8.46289 10.8465 8.03125 10.7606 7.44531 10.7606ZM16.5039 11.1649C17.2422 11.1649 17.8379 11.452 18.291 12.0262C18.748 12.6004 18.9766 13.4422 18.9766 14.5516C18.9766 15.2938 18.8691 15.9188 18.6543 16.4266C18.4395 16.9305 18.1426 17.3114 17.7637 17.5692C17.3848 17.827 16.9492 17.9559 16.457 17.9559C16.1406 17.9559 15.8691 17.9168 15.6426 17.8387C15.416 17.7567 15.2227 17.6532 15.0625 17.5282C14.9023 17.3993 14.7637 17.2625 14.6465 17.118H14.5527C14.584 17.2743 14.6074 17.4344 14.623 17.5985C14.6387 17.7625 14.6465 17.9227 14.6465 18.0789V20.7215H12.8594V11.2879H14.3125L14.5645 12.1375H14.6465C14.7637 11.9618 14.9062 11.7997 15.0742 11.6512C15.2422 11.5028 15.4434 11.3856 15.6777 11.2997C15.916 11.2098 16.1914 11.1649 16.5039 11.1649ZM15.9297 12.5946C15.6172 12.5946 15.3691 12.659 15.1855 12.7879C15.002 12.9168 14.8672 13.1102 14.7812 13.368C14.6992 13.6258 14.6543 13.952 14.6465 14.3465V14.5399C14.6465 14.9618 14.6855 15.3192 14.7637 15.6122C14.8457 15.9051 14.9805 16.1278 15.168 16.2801C15.3594 16.4325 15.6211 16.5086 15.9531 16.5086C16.2266 16.5086 16.4512 16.4325 16.627 16.2801C16.8027 16.1278 16.9336 15.9051 17.0195 15.6122C17.1094 15.3153 17.1543 14.9539 17.1543 14.5282C17.1543 13.8875 17.0547 13.4051 16.8555 13.0809C16.6562 12.7567 16.3477 12.5946 15.9297 12.5946Z" fill="white"/>
</svg>
